<?xml version="1.0" encoding="UTF-8"?>
<!-- Generator: Adobe Illustrator 25.3.0, SVG Export Plug-In . SVG Version: 6.00 Build 0)  -->
<svg xmlns="http://www.w3.org/2000/svg" xmlns:xlink="http://www.w3.org/1999/xlink" version="1.1" id="Layer_1" x="0px" y="0px" viewBox="0 0 273 73" style="enable-background:new 0 0 273 73;" xml:space="preserve">
<style type="text/css">
	.st0{fill-rule:evenodd;clip-rule:evenodd;fill:#FFCA05;}
	.st1{fill-rule:evenodd;clip-rule:evenodd;fill:#005696;}
	.st2{fill:#FFCA05;}
	.st3{fill-rule:evenodd;clip-rule:evenodd;fill:#FFF100;}
</style>
<g>
	<g>
		<path class="st0" d="M59,51.7c1.7-3.9,2.7-8.2,2.7-12.7c0-17-13.8-30.9-30.9-30.9C13.8,8.2,0,22,0,39c0,4.5,1,8.8,2.7,12.7    l-2.4,2.1l0.3,0.6c5.1,10,14.9,16.9,26.1,18.3c1.4,0.2,2.8,0.3,4.2,0.3c1.4,0,2.8-0.1,4.2-0.3c11.2-1.4,20.9-8.2,26.1-18.3    l0.3-0.6L59,51.7z"></path>
		<path class="st1" d="M6.5,49.8l-4.8,4.3c5,9.7,14.4,16.2,25.2,17.5c1.3,0.2,2.7,0.3,4.1,0.3c1.4,0,2.7-0.1,4.1-0.3    c10.8-1.3,20.2-7.9,25.2-17.5l-4.8-4.3C51,59.5,41.4,65.7,30.9,65.7C20.3,65.7,10.7,59.5,6.5,49.8 M53.4,51.1l-2.1-2l3.2-0.3    C54.2,49.6,53.8,50.4,53.4,51.1z M51.7,48.4c1-2.2,1.7-4.6,1.9-7.2l2.7,3.9l4-2.7c-0.3,3-1.1,5.8-2.3,8.5L54.9,48L51.7,48.4z     M8.3,51.1l2.1-2l-3.2-0.3l0.1,0.3C7.6,49.8,7.9,50.5,8.3,51.1z M10,48.4c-1-2.2-1.7-4.6-1.9-7.2l-2.7,3.9l-4-2.7    c0.3,3,1.1,5.8,2.3,8.5L6.9,48L10,48.4z M30.9,9.2 M30.9,9.4C14.5,9.4,1.2,22.7,1.2,39c0,0.8,0,1.6,0.1,2.4L5.2,44L8,39.9    c0-0.3,0-0.6,0-0.9c0-12.6,10.2-22.8,22.8-22.8c12.6,0,22.8,10.2,22.8,22.8c0,0.3,0,0.6,0,0.9l2.8,4.1l3.9-2.6    c0.1-0.8,0.1-1.6,0.1-2.4C60.5,22.7,47.2,9.4,30.9,9.4z"></path>
		<path class="st1" d="M44.6,45.7h-1.5c-0.8,0-1.5-0.2-1.8-0.9c-0.1-0.2-0.2-0.5-0.2-0.9c0-1.3,0.6-1.9,2-1.9h1.5v0.7h-1.4    c-0.8,0-0.9,0.5-0.9,1.2c0,0.7,0.2,1,0.9,1h1.4V45.7z M40.9,41.4v0.3c0,0.4-0.2,0.6-0.5,0.7v1.8c0,1.2-0.7,1.5-1.9,1.5    c-1.2,0-1.8-0.3-1.8-1.5V42h1.1v2.2c0,0.6,0.1,0.8,0.7,0.8c0.7,0,0.7-0.2,0.7-0.8V42h1.1v-0.2H40v-0.4H40.9z M33.1,44.2h0.7v-0.7    h-0.7v-0.7h0.8c0.8,0,0.9,0.4,0.9,1.1c0,0.7,0,1.1-0.9,1.1h-0.8V44.2z M27.2,44.2h2.3v-0.7h-2.3c0-0.5,0.4-0.7,0.9-0.7h1.4V42    h-1.5c-1.4,0-2,0.6-2,1.9c0,1.2,0.7,1.8,2,1.8h1.5v-0.7h-1.4C27.5,44.9,27.2,44.8,27.2,44.2z M20.8,42.8h-1.3v2.9h-1.1l0-2.9h-1.3    V42h3.7V42.8z M25.2,44.2c0,0.7-0.1,1.1-0.9,1.4c-0.5,0.2-1.4,0.2-1.9,0c-0.8-0.3-0.9-0.7-0.9-1.4V42h1.1v2.2    c0,0.3,0.1,0.5,0.2,0.6c0.3,0.2,0.8,0.2,1.1,0c0.1-0.1,0.2-0.3,0.2-0.6V42h1.1V44.2z M31.6,43.5v0.7H32v1.5h2c1.2,0,2-0.5,2-1.8    c0-1.3-0.6-1.9-2-1.9H32v1.4H31.6z M39.6,41l-0.7,0.6h-0.8l0.6-0.6H39.6z M28.5,41l0.8,0.6h-0.8L28,41.3l-0.4,0.3h-0.8l0.7-0.6    C27.8,40.8,28.3,40.8,28.5,41z M27.6,46.1h0.9v0.6h-0.9V46.1z"></path>
		<path class="st0" d="M3.7,31l1.6,0.2l0.8-1.4l0.3,1.6l1.6,0.3l-1.4,0.7l0.2,1.6L5.6,33l-1.5,0.6l0.7-1.4L3.7,31z M6.8,24.3    l1.5,0.6l1.1-1.1l-0.1,1.6l1.4,0.7l-1.5,0.4L8.8,28L8,26.7l-1.6,0.2l1-1.2L6.8,24.3z M11.4,18.6l1.3,1l1.4-0.8l-0.5,1.5l1.2,1.1    l-1.6-0.1l-0.6,1.5L12,21.2L10.4,21l1.3-0.9L11.4,18.6z M58,31l-1.6,0.2l-0.8-1.4l-0.3,1.6l-1.6,0.3l1.4,0.7L55,34.1l1.1-1.1    l1.5,0.6l-0.7-1.4L58,31z M55,24.3l-1.5,0.6l-1.1-1.1l0.1,1.6l-1.4,0.7l1.5,0.4l0.2,1.6l0.8-1.4l1.6,0.2l-1-1.2L55,24.3z     M50.3,18.6l-1.3,1l-1.4-0.8l0.5,1.5l-1.2,1.1l1.6-0.1l0.6,1.5l0.4-1.5l1.6-0.2L50,20.1L50.3,18.6z M59.1,38.3l-1.6-0.2l-0.4-1.5    L56.5,38l-1.6-0.1l1.2,1.1l-0.6,1.5l1.4-0.8l1.2,1l-0.3-1.6L59.1,38.3z M2.6,38.3l1.6-0.2l0.4-1.5L5.2,38l1.6-0.1L5.7,39l0.6,1.5    l-1.4-0.8l-1.2,1l0.3-1.6L2.6,38.3z"></path>
		<path class="st2" d="M56.9,53.5l-0.3,0.7c-0.1-0.1-0.2-0.1-0.3,0c-0.1,0-0.2,0.1-0.3,0.2c-0.1,0.2-0.1,0.3-0.1,0.5    c0,0.2,0.2,0.3,0.4,0.5c0.3,0.2,0.5,0.2,0.6,0.2c0.2,0,0.3-0.1,0.4-0.3c0.1-0.1,0.1-0.2,0.1-0.3c0-0.1-0.1-0.2-0.2-0.4l0.5-0.5    c0.2,0.2,0.4,0.5,0.4,0.7c0,0.3,0,0.5-0.2,0.8c-0.2,0.3-0.5,0.5-0.8,0.6c-0.3,0.1-0.7,0-1-0.2c-0.4-0.2-0.6-0.5-0.7-0.8    c-0.1-0.3,0-0.7,0.2-1c0.2-0.3,0.4-0.5,0.6-0.6C56.4,53.5,56.6,53.5,56.9,53.5 M56.2,59.5l-0.4-0.3l0.4-0.6l0.4,0.3L56.2,59.5z     M53.8,55.1l0.4-0.6l0.4,0.3c0.2,0.1,0.3,0.2,0.3,0.3c0.1,0.1,0.1,0.2,0.1,0.4c0,0.2,0,0.4-0.2,0.7l1.6,1.3l-0.4,0.5l-0.3-0.2    c0.1,0.4,0,0.7-0.2,1c-0.2,0.3-0.5,0.4-0.8,0.3c-0.2,0-0.3-0.1-0.5-0.3l-1.3-1l0.4-0.6l1,0.8c0.3,0.2,0.5,0.3,0.6,0.4    c0.1,0,0.2,0,0.2,0c0.1,0,0.2-0.1,0.2-0.2c0.1-0.1,0.1-0.2,0.1-0.3c0-0.1,0-0.2-0.1-0.3c-0.1-0.1-0.2-0.2-0.5-0.5L54,56.5l0.4-0.6    l0.2,0.2c0.1-0.2,0.1-0.4,0.1-0.5c0-0.1-0.1-0.2-0.2-0.3l-0.2,0.3L53.8,55.1z M52.9,61.8l-2.6-2.5l0.5-0.5l2.2,2.1l1.3-1.4    l0.4,0.4L52.9,61.8z M51.3,64.4L50.9,64l0.5-0.5l0.3,0.4L51.3,64.4z M50.7,63.7l-1.7-2l0.5-0.5l1.7,2L50.7,63.7z M48.7,61.4    l-0.4-0.5l0.5-0.5l0.4,0.5L48.7,61.4z M46.6,62.2l0.8,1.1c0-0.4,0.2-0.6,0.4-0.8c0.1-0.1,0.3-0.2,0.4-0.2c0.1,0,0.3,0,0.4,0    c0.1,0,0.2,0.1,0.3,0.2c0.1,0.1,0.2,0.2,0.3,0.4l0.9,1.3l-0.6,0.4l-0.8-1.1c-0.2-0.2-0.3-0.4-0.3-0.4c-0.1,0-0.1-0.1-0.2-0.1    c-0.1,0-0.2,0-0.3,0.1c-0.1,0.1-0.2,0.2-0.2,0.3c0,0.1-0.1,0.2,0,0.3c0,0.1,0.1,0.3,0.2,0.4l0.8,1.1l-0.6,0.4l-2.1-3L46.6,62.2z     M45.2,65.7c0.1,0.2,0.3,0.4,0.4,0.4c0.2,0.1,0.3,0,0.5,0c0.1-0.1,0.2-0.2,0.3-0.4c0-0.2,0-0.4-0.1-0.6c-0.1-0.2-0.3-0.4-0.5-0.4    c-0.2-0.1-0.3,0-0.5,0c-0.1,0.1-0.2,0.2-0.3,0.4C45,65.3,45,65.5,45.2,65.7z M45.4,67.4l0.8-0.3c0.1,0.1,0.1,0.1,0.2,0.1    c0.1,0,0.2,0,0.3-0.1c0.2-0.1,0.3-0.2,0.3-0.3c0-0.1,0-0.1,0-0.2c0-0.1-0.1-0.2-0.1-0.3L46.7,66c0,0.4-0.2,0.6-0.5,0.8    c-0.3,0.2-0.6,0.2-1,0c-0.3-0.1-0.5-0.3-0.7-0.6c-0.2-0.4-0.3-0.7-0.2-1c0.1-0.3,0.2-0.5,0.5-0.7c0.3-0.2,0.6-0.2,0.9,0L45.6,64    l0.6-0.3l1.2,2c0.2,0.3,0.2,0.5,0.3,0.6c0,0.2,0,0.3,0,0.4c0,0.1-0.1,0.2-0.2,0.4c-0.1,0.1-0.3,0.2-0.5,0.4    c-0.4,0.2-0.7,0.3-1,0.3C45.7,67.8,45.5,67.7,45.4,67.4C45.4,67.4,45.4,67.4,45.4,67.4z M41.9,68.7l-1.4-3.3l0.7-0.3l2.4,1.6    l-1-2.2l0.6-0.3l1.4,3.3L44,67.8l-2.3-1.6l0.9,2.2L41.9,68.7z M39.3,68.7L39.1,68l1.3-0.4l0.2,0.7L39.3,68.7z M37,71l-0.1-0.5    l0.7-0.1l0.1,0.5L37,71z M35.6,67.2l0.4-0.8l0.6-0.1l0.7,0.6l-0.6,0.1l-0.4-0.3L36.2,67L35.6,67.2z M37.4,68.4    c0-0.2-0.1-0.3-0.2-0.4c-0.1-0.1-0.3-0.1-0.4-0.1c-0.2,0-0.3,0.1-0.3,0.2c-0.1,0.1-0.1,0.3-0.1,0.5L37.4,68.4z M37.4,69.1l0.7,0    c0,0.3-0.1,0.5-0.3,0.7c-0.2,0.2-0.4,0.3-0.7,0.3c-0.5,0.1-0.8,0-1.1-0.2c-0.2-0.2-0.4-0.5-0.4-0.8c-0.1-0.4,0-0.8,0.1-1.1    c0.2-0.3,0.4-0.5,0.8-0.5c0.4-0.1,0.7,0,1,0.2c0.3,0.2,0.5,0.6,0.6,1.1l-1.7,0.4c0,0.2,0.1,0.3,0.3,0.4c0.1,0.1,0.3,0.1,0.4,0.1    c0.1,0,0.2-0.1,0.3-0.1C37.4,69.4,37.4,69.3,37.4,69.1z M34.7,70.5l0-0.4c-0.1,0.1-0.2,0.3-0.4,0.4c-0.2,0.1-0.3,0.2-0.5,0.2    c-0.2,0-0.3,0-0.5-0.1c-0.2-0.1-0.3-0.2-0.3-0.3c-0.1-0.1-0.1-0.3-0.2-0.6L32.7,68l0.7-0.1l0.1,1.2c0,0.4,0.1,0.6,0.1,0.7    c0,0.1,0.1,0.1,0.2,0.2c0.1,0,0.2,0.1,0.3,0c0.1,0,0.2-0.1,0.3-0.1c0.1-0.1,0.1-0.2,0.2-0.3c0-0.1,0-0.3,0-0.7l-0.1-1.1l0.7-0.1    l0.3,2.6L34.7,70.5z M31,70.7l0-3l-1.1,0l0-0.6l2.9,0l0,0.6l-1.1,0l0,3L31,70.7z M27.7,67.4l0.4-0.7l0.8,0.1l-0.8,0.7L27.7,67.4z     M27.3,70.5l0.3-2.6l0.7,0.1L28,70.6L27.3,70.5z M25.9,70.3l-0.7-0.1l0.4-2.6l0.6,0.1l-0.1,0.4c0.1-0.2,0.3-0.3,0.4-0.3    c0.1,0,0.2,0,0.3,0c0.2,0,0.3,0.1,0.4,0.2l-0.3,0.6c-0.1-0.1-0.2-0.2-0.3-0.2c-0.1,0-0.2,0-0.3,0c-0.1,0-0.1,0.1-0.2,0.3    c-0.1,0.1-0.1,0.4-0.2,0.9L25.9,70.3z M23.3,69.8l0.7-2.9l-1.1-0.2L23,66l2.9,0.7l-0.1,0.6L24.7,67L24,69.9L23.3,69.8z M20.8,68    l0.2-0.7l1.3,0.4l-0.2,0.7L20.8,68z M19.7,66.7L19,66.5c0-0.1,0-0.2,0-0.3c0-0.1-0.1-0.2-0.3-0.2c-0.2-0.1-0.3-0.1-0.5,0    c-0.1,0.1-0.3,0.2-0.4,0.5c-0.1,0.3-0.2,0.5-0.1,0.7c0,0.2,0.1,0.3,0.3,0.4c0.1,0.1,0.2,0.1,0.3,0c0.1,0,0.2-0.1,0.3-0.3l0.6,0.4    c-0.2,0.3-0.4,0.4-0.7,0.5c-0.3,0.1-0.5,0-0.9-0.1c-0.4-0.2-0.6-0.4-0.7-0.7c-0.1-0.3-0.1-0.7,0.1-1.1c0.2-0.4,0.4-0.7,0.7-0.8    c0.3-0.1,0.7-0.1,1,0.1c0.3,0.1,0.5,0.3,0.6,0.5C19.7,66.2,19.8,66.4,19.7,66.7z M15.9,63.5l0.7-0.5l0.7,0.4l-1,0.3L15.9,63.5z     M17.6,63.8l0.6,0.4L18,64.6c-0.1,0.2-0.2,0.3-0.3,0.4c-0.1,0.1-0.2,0.1-0.3,0.2c-0.2,0-0.4,0-0.7-0.1l-1,1.7l-0.6-0.3l0.2-0.3    c-0.3,0.2-0.7,0.1-1,0c-0.3-0.2-0.5-0.5-0.5-0.8c0-0.2,0.1-0.3,0.2-0.6l0.8-1.4l0.6,0.4l-0.6,1.1c-0.2,0.3-0.3,0.5-0.3,0.6    c0,0.1,0,0.2,0,0.2c0,0.1,0.1,0.1,0.2,0.2c0.1,0.1,0.2,0.1,0.3,0.1c0.1,0,0.2,0,0.3-0.1c0.1-0.1,0.2-0.3,0.4-0.6l0.6-1l0.6,0.4    l-0.2,0.4c0.2,0.1,0.4,0.1,0.6,0c0.1,0,0.2-0.1,0.2-0.2l-0.3-0.2L17.6,63.8z M12.9,61.4l-0.6,0.8l0.6,0.5L12.7,63l-0.6-0.5    l-0.6,0.8l0.5,0.3c0.2,0.1,0.4,0.2,0.5,0.3c0.1,0,0.3,0,0.4,0c0.2-0.1,0.4-0.3,0.6-0.6c0.2-0.2,0.3-0.4,0.3-0.5    c0.1-0.1,0.1-0.3,0.1-0.4c0-0.1-0.1-0.2-0.2-0.4c-0.1-0.1-0.2-0.2-0.5-0.4L12.9,61.4z M12.7,60.4l1.1,0.8c0.3,0.2,0.4,0.3,0.5,0.5    c0.1,0.2,0.2,0.4,0.2,0.6c0,0.2,0,0.5-0.1,0.7c-0.1,0.2-0.2,0.5-0.4,0.8c-0.2,0.2-0.4,0.4-0.6,0.6c-0.2,0.1-0.4,0.2-0.7,0.3    c-0.2,0-0.4,0-0.6-0.1c-0.2-0.1-0.4-0.2-0.6-0.3l-1.1-0.8l0.9-1.3l-0.3-0.2l0.3-0.4l0.3,0.2L12.7,60.4z M8.6,59.6    c-0.2,0.2-0.3,0.4-0.3,0.6c0,0.2,0,0.3,0.2,0.5c0.1,0.1,0.3,0.2,0.5,0.2c0.2,0,0.4-0.1,0.6-0.3c0.2-0.2,0.3-0.4,0.3-0.5    c0-0.2,0-0.3-0.2-0.5c-0.1-0.1-0.3-0.2-0.5-0.2C9,59.3,8.8,59.4,8.6,59.6z M8.1,59.1c0.2-0.2,0.4-0.3,0.6-0.3    c0.2-0.1,0.5-0.1,0.7,0c0.2,0.1,0.4,0.2,0.6,0.4c0.3,0.3,0.4,0.6,0.4,1c0,0.4-0.2,0.7-0.4,1c-0.3,0.3-0.6,0.4-1,0.4    c-0.4,0-0.7-0.2-1-0.5c-0.2-0.2-0.3-0.4-0.4-0.6c-0.1-0.2-0.1-0.5,0-0.7C7.7,59.5,7.9,59.3,8.1,59.1z M5,58.9l0.4-0.4l0.4,0.6    l-0.4,0.4L5,58.9z M7.3,58.2C7.2,58.2,7.1,58.1,7,58c-0.2-0.1-0.3-0.2-0.3-0.2c-0.1,0-0.2,0-0.3,0c-0.1,0.1-0.1,0.1-0.1,0.2    c0,0.1,0,0.2,0.1,0.3c0.1,0.1,0.2,0.2,0.3,0.2c0.1,0,0.2,0,0.3,0c0.1,0,0.2-0.1,0.3-0.2L7.3,58.2z M7.2,57.1l-0.3-0.6    c0.2-0.1,0.5-0.1,0.7-0.1C7.7,56.6,8,56.7,8.2,57c0.2,0.2,0.3,0.5,0.4,0.6c0,0.2,0,0.3,0,0.4c0,0.1-0.2,0.3-0.4,0.5L7.4,59    c-0.2,0.1-0.3,0.3-0.4,0.3c-0.1,0.1-0.1,0.2-0.2,0.3l-0.4-0.6c0,0,0.1-0.1,0.1-0.2c0,0,0-0.1,0-0.1c-0.2,0-0.3-0.1-0.4-0.1    c-0.1-0.1-0.2-0.2-0.3-0.3c-0.2-0.2-0.2-0.4-0.2-0.6c0-0.2,0.1-0.4,0.3-0.5c0.1-0.1,0.2-0.1,0.4-0.2c0.1,0,0.3,0,0.4,0.1    c0.1,0.1,0.3,0.2,0.5,0.3c0.3,0.2,0.4,0.4,0.6,0.4l0.1,0c0.1-0.1,0.2-0.2,0.2-0.3c0-0.1-0.1-0.2-0.2-0.4c-0.1-0.1-0.2-0.2-0.2-0.2    C7.4,57.1,7.3,57.1,7.2,57.1z M6.3,53.8l-0.8,0.5l0.3,0.5L5.4,55l-0.3-0.5L4.3,55l0.3,0.5c0.1,0.2,0.2,0.4,0.3,0.4    C5,56,5.2,56.1,5.3,56.1c0.2,0,0.5-0.1,0.8-0.3c0.2-0.1,0.4-0.3,0.5-0.4c0.1-0.1,0.2-0.2,0.2-0.4c0-0.1,0-0.3,0-0.4    c0-0.1-0.1-0.3-0.3-0.6L6.3,53.8z M6.5,52.8L7.2,54c0.2,0.3,0.3,0.5,0.3,0.6c0.1,0.2,0.1,0.4,0,0.7c-0.1,0.2-0.2,0.4-0.3,0.6    c-0.2,0.2-0.4,0.4-0.7,0.6c-0.3,0.2-0.5,0.3-0.8,0.3c-0.3,0.1-0.5,0-0.7,0c-0.2,0-0.3-0.1-0.5-0.3c-0.1-0.1-0.3-0.3-0.4-0.5    l-0.7-1.2l1.4-0.8l-0.2-0.3l0.4-0.2l0.2,0.3L6.5,52.8z"></path>
		<path class="st3" d="M43.5,16c0.3-0.6,1.1-1,1.6-1.5c0.3-0.3,0.6-0.7,0.4-1.2l0-0.1l0,0c0.1-0.2,0.3-0.5,0.3-0.8c0,0,0,0,0-0.1    c0,0,0,0,0,0c-0.2,0.2-0.3,0.4-0.5,0.5l-0.1,0l-0.1,0c-0.2-0.1-0.4-0.2-0.6-0.3l-0.4-0.1c-0.9-0.3-0.7-0.6-0.2-1.2l0.1-0.1    l0.1,0.1c0.3,0.3,0.8,0.5,1.1,0.6l0.1,0L45.4,12c-0.1,0.2-0.2,0.4-0.3,0.5c0,0,0,0,0,0c0,0,0.1,0,0.1,0c0.2-0.1,0.5-0.3,0.7-0.5    l0,0l0.1,0c0.1,0,0.2,0,0.3,0c0.8-0.2,1.4-0.9,1.3-1.8l0-0.1l0.1,0c0.9-0.1,1.1-1.1,0.4-1.6l-1.7-1.1l0-0.1    c0.2-0.9-0.2-1.6-0.9-2.1c-0.4-0.3-1.3-0.7-1.8-0.7l-0.1,0l0-0.1c-0.4-1.6-2.5-1.9-3.8-1.7c-0.9,0.1-1.8,0.4-2.5,1.1l-0.1,0.1    L37,3.6c-0.3-1-1-1.7-1.9-2.2C34.5,1.1,33.7,1,33,1.2l-0.7,0.2L33,1c0.4-0.3,1.2-0.4,1.8-0.2c-0.8-0.7-2.2-0.7-3-0.2    c-0.3,0.2-0.6,0.4-0.8,0.7l-0.1,0.1l-0.1-0.1C30.6,1,30.3,0.7,30,0.6c-0.8-0.4-2.3-0.4-3,0.2c0.6-0.2,1.4-0.1,1.8,0.2l0.6,0.4    l-0.7-0.2C28,1,27.2,1.1,26.6,1.4c-0.9,0.4-1.6,1.2-1.9,2.2l-0.1,0.2l-0.1-0.1c-0.7-0.6-1.6-1-2.5-1.1c-1.3-0.2-3.4,0.2-3.8,1.7    l0,0.1l-0.1,0c-0.5,0-1.4,0.4-1.8,0.7c-0.7,0.5-1.1,1.2-0.9,2.1l0,0.1l-1.7,1.1C13,8.8,13.3,9.8,14.1,10l0.1,0l0,0.1    c-0.2,0.9,0.5,1.6,1.3,1.8c0.1,0,0.2,0,0.3,0l0.1,0l0,0c0.1,0.2,0.4,0.5,0.7,0.5c0,0,0.1,0,0.1,0c0,0,0,0,0,0    c-0.1-0.2-0.2-0.3-0.3-0.5l-0.1-0.1l0.1,0c0.4-0.1,0.9-0.3,1.1-0.6l0.1-0.1l0.1,0.1c0.5,0.6,0.7,0.9-0.2,1.2l-0.4,0.1    c-0.2,0.1-0.5,0.2-0.6,0.3l-0.1,0l-0.1,0c-0.2-0.1-0.4-0.3-0.5-0.5c0,0,0,0,0,0c0,0,0,0.1,0,0.1c0,0.2,0.2,0.6,0.3,0.8l0,0l0,0.1    c-0.1,0.4,0.2,0.9,0.4,1.2c0.5,0.5,1.3,0.9,1.6,1.5c0.3-1.2,1.5-1.8,2.5-2.4l0.7-0.4l-0.5,0.6c-1.7,1.8-3.4,5.7-2.1,8.1l0,0l0,0    c-0.1,1.6,0.6,3,1.7,4.1l0,0l0,0c0.6,2,1.4,3.3,1.3,5.5c-0.1,1.5-0.7,2.9-1.5,4.1l0,0.1l-0.1,0c-1.9-0.3-3,1.1-2.8,3l0,0.3l12.6,0    l0.1-2.9l0-7l0.2,0.3l0.5,1.2h0.4c0.1-0.4,0.3-0.8,0.5-1.2l0.2-0.3l0.3,10h12.4l0-0.3c0.2-1.9-0.9-3.3-2.8-3l-0.1,0l0-0.1    c-0.7-1.3-1.4-2.7-1.5-4.1c-0.1-2.2,0.7-3.5,1.3-5.5l0,0l0,0c1-1.1,1.8-2.5,1.7-4.1l0,0l0,0c1.4-2.4-0.4-6.4-2.1-8.1l-0.5-0.6    l0.7,0.4C42.1,14.3,43.2,14.8,43.5,16"></path>
		<path class="st1" d="M27.2,51.3H19v-1.7h9.8v15c-0.6,0-1.1-0.1-1.6-0.2V51.3z M34.6,51.3v13.1c-0.5,0.1-1.1,0.1-1.6,0.2v-15h9.8    v1.7H34.6z M37.5,53.7v10.1c-0.5,0.1-1.1,0.3-1.6,0.4V52h4.8v1.7H37.5z M24.3,53.7h-3.1V52h4.8v12.2c-0.6-0.1-1.1-0.2-1.6-0.4    V53.7z M17.1,39.8h27.5v0.7H17.1V39.8z M17.1,7.4c0.1-0.1,0-0.4-0.2-0.2l-0.1,0.1c-0.1-0.3,0.2-0.6,0.6-0.9    c-0.2,0.4-0.3,0.4,0.1,0.4l0.7,0c0.5,0,0.5,0.1,0.1,0.3l-1.9,1.2L17.1,7.4z M44.7,7.4c-0.1-0.1,0-0.4,0.2-0.2L45,7.2    c0.1-0.3-0.2-0.6-0.6-0.9c0.2,0.4,0.3,0.4-0.1,0.4l-0.7,0c-0.5,0-0.5,0.1-0.1,0.3l1.9,1.2L44.7,7.4z M32,29.5    c0.2-0.3,0.3-0.7,0.4-1.1c0.4,0.6,0.9,1.1,1.2,2.1c0.3-1.2,0.8-1.8,1.3-2.6c0.4-0.3,0.8-0.7,1.1-1L35.7,36    c0.6,0.1,3.3-0.1,3.2,2.5l-0.7,0c0-1.1-0.6-1.5-1.4-1.6c0.7,0.2,0.8,0.9,0.8,1.6l-0.8,0c0-1.1-0.6-1.5-1.4-1.5    c0.7,0.2,0.8,0.9,0.8,1.5l-4.2,0V29.5z M22.1,38.2H19c0-0.6,0.2-1,0.8-1.2c-0.8,0.1-1.3,0.2-1.4,1.2h-0.8c0.1-1.3,1.4-1.9,2.7-1.6    l0.3,0.1c0.7-0.8,1.1-1.7,1.4-2.6L22,34l0,0c0.4-1.7,0.3-3.5,0.1-5.2c-0.2-1.4-0.1-2.7,0.5-3.7c-0.1,0.8,1.3,1.6,1.1,3.8    c0.3-0.3,0.7-0.8,1-1.6l0.4,8.3l-0.7,0.1C22.9,35.8,22.1,36.7,22.1,38.2z M44.1,38.2h-0.8c-0.1-0.9-0.6-1.1-1.4-1.2    c0.6,0.2,0.8,0.6,0.8,1.2h-3.1c0-1.6-0.8-2.4-2.3-2.7l-0.7-0.1l0.4-8.3c0.3,0.8,0.7,1.4,1,1.6c-0.3-2.2,1.2-3,1.1-3.8    c0.6,0.9,0.7,2.3,0.5,3.7c-0.2,1.8-0.3,3.6,0.1,5.2l0,0l0.1,0.1c0.3,0.9,0.7,1.8,1.4,2.6l0.3-0.1C42.7,36.4,44,37,44.1,38.2z     M44.6,38.2c-0.1-1.6-1.4-2.7-3.1-2.4c-0.3-0.5-0.6-1.1-0.8-1.7l0.6-1c0.7,0.6,1.2,1.2,1.5,2.2l0.9-1.4c0.6,0.9,0.9,1.7,0.9,2.9    l1.2-1.2c0.4,1.3,0.4,2.7-0.2,4l2.3-1.3c0.1,2.2-0.8,3.6-2.5,4.7l3.6-0.9c-0.3,2.2-1.8,4.2-3.8,4.9v1.6c3.3-1.1,5.5-4.4,5.4-8.3    l-2,0.5c0.5-1.5,0.6-3.2-0.2-4.6l-1.4,1c0-1.4-0.4-2.5-1.2-3.6l-0.9,1c-0.3-1.1-0.9-1.8-1.7-2.5l-0.8,1.2c-0.4-0.6-1-1.1-1.8-1.5    l-0.5,0.9c-0.3-2.1,0.1-4.3,0.9-6.2c0.9-1.9,0.7-4.5-1-6c1.5,2.4,0.4,5.2-0.5,7.2c0.5-1.8,0.2-2.8-0.9-4.1c0,1.6-1,1.3-1.3,3.6    c-0.7-1.2-1-2.2-0.2-3.4c0.4-0.6,0.9-1.3,0.9-2.5c1.7-2.5,0.9-5.6-1-6.9c1.6,1.6,1.3,4.1,0.8,5.7c-0.2-0.8-0.7-1.6-1.5-2.1    c1.3,1.9,0.9,4.3,0.1,6c0-1.1-0.3-2.3-0.9-3.3c0.9,2.8,0,5.2-1,6.2c0.1-0.6,0-1.7-0.5-2.6c0.5,2.1-0.6,3.6-0.9,5    c-0.2-0.9-1.1-1.5-1.3-2.5c0,1.6-0.9,2.5-1.4,3.5l0,0l0,0c-0.5-1-1.4-1.9-1.4-3.5c-0.3,1-1.1,1.6-1.3,2.5c-0.2-1.3-1.4-2.8-0.9-5    c-0.5,1-0.6,2.1-0.5,2.6c-1-1-1.8-3.4-1-6.2c-0.6,1.1-0.9,2.2-0.9,3.3c-0.8-1.6-1.2-4,0.1-6c-0.7,0.5-1.2,1.2-1.5,2.1    c-0.5-1.6-0.8-4.2,0.8-5.7c-2,1.3-2.7,4.4-1,6.9c0,1.1,0.6,1.8,0.9,2.5c0.7,1.2,0.5,2.3-0.2,3.4c-0.3-2.3-1.3-2-1.3-3.6    c-1.1,1.3-1.4,2.4-0.9,4.1c-0.9-2-2-4.8-0.5-7.2c-1.7,1.5-1.8,4.1-1,6c0.8,1.8,1.2,4.1,0.9,6.2l-0.5-0.9c-0.8,0.4-1.3,0.8-1.8,1.5    L18.3,32c-0.8,0.8-1.4,1.4-1.7,2.5l-0.9-1c-0.8,1.2-1.2,2.2-1.2,3.6l-1.4-1c-0.8,1.4-0.7,3.2-0.2,4.6l-2-0.5    c-0.1,3.9,2.1,7.2,5.4,8.3v-1.6c-2-0.7-3.4-2.7-3.8-4.9l3.6,0.9c-1.7-1.1-2.5-2.6-2.5-4.7l2.3,1.3c-0.6-1.3-0.5-2.7-0.2-4l1.2,1.2    c0-1.2,0.3-2,0.9-2.9l0.9,1.4c0.3-1,0.8-1.7,1.5-2.2l0.6,1c-0.2,0.6-0.5,1.2-0.8,1.7c-1.7-0.3-3,0.8-3.1,2.4v1h5h1h7.7h0h0h7.7h1    h5C44.7,38.9,44.7,38.6,44.6,38.2z M31.9,10.5c0.7,0.4,2.3-0.2,1.7-2.1c0.6,1,0.3,1.7-0.1,2c-0.3,0.3-0.7,0.4-1,0.4    c-0.5,0-1-0.1-1.1-0.7c0.6,0.2,1.8-0.2,1.9-1.3C33.5,9.9,32.7,10.5,31.9,10.5z M31.7,6v1.4L32.3,6c0.1-0.2,0.2-0.3,0.4-0.3    c0.1,0,0.2,0.1,0.2,0.3l0.4,0c0.1,0,0.2-0.1,0.3-0.2l0.4-0.4C34.3,5.2,34.6,5,34.9,5h-2c-0.3,0-0.5,0-0.7,0.1    c0-0.3,0.1-0.5,0.3-0.6C31.8,4.5,31.7,5.4,31.7,6z M29.9,10.5c-0.7,0.4-2.3-0.2-1.7-2.1c-0.6,1-0.3,1.7,0.1,2    c0.3,0.3,0.7,0.4,1,0.4c0.5,0,1-0.1,1.1-0.7c-0.6,0.2-1.8-0.2-1.9-1.3C28.3,9.9,29,10.5,29.9,10.5z M30,6v1.4L29.4,6    c-0.1-0.2-0.2-0.3-0.4-0.3c-0.1,0-0.2,0.1-0.2,0.3l-0.4,0c-0.1,0-0.2-0.1-0.3-0.2l-0.4-0.4C27.4,5.2,27.1,5,26.9,5h2    c0.3,0,0.5,0,0.7,0.1c0-0.3-0.1-0.5-0.3-0.6C29.9,4.5,30,5.4,30,6z M30.9,18.4c-0.4-1-1.7-1.9-1.4-3.1c-0.3,0.6-0.3,1.3-0.2,2    c-1.4-1-1.9-2.4-1.9-3.7c-0.2,0.3-0.2,1.3,0.1,1.9c-1.5-0.9-1.8-3.1-1.7-4c-0.2,0.4-0.3,1-0.2,1.4c-1-1-1.4-2.9-1-4.7    c-0.2,0.3-0.4,0.9-0.4,1.5c-0.7-1.6-0.4-4.1,1-5.7c-2.2,1.6-2.2,5.1-1,6.3c0,1.7,1.1,2.9,1.5,3.1c0.2,1.2,0.9,2.1,2,2.4    c0.9,1.7,1.7,1.6,2,2.2c0-0.3,0-0.7-0.1-1.1c0.3,0.6,1,1.4,1.3,2c0.3-0.6,1-1.5,1.3-2c-0.1,0.4-0.1,0.8-0.1,1.1    c0.3-0.6,1.1-0.5,2-2.2c1-0.4,1.7-1.3,2-2.4c0.4-0.2,1.5-1.4,1.5-3.1c1.1-1.2,1.2-4.8-1-6.3c1.4,1.6,1.7,4.1,1,5.7    c0-0.6-0.2-1.2-0.4-1.5c0.4,1.9,0,3.7-1,4.7c0.1-0.5,0-1-0.2-1.4c0.1,0.9-0.2,3.1-1.7,4c0.3-0.7,0.2-1.6,0.1-1.9    c0,1.3-0.5,2.7-1.9,3.7c0.1-0.7,0.1-1.4-0.2-2C32.6,16.6,31.3,17.4,30.9,18.4z M30.9,16.4c-0.4-0.7-1.1-1.2-1.2-2.1    c-0.2,0.3-0.7,0.8-0.7,1.1c-0.3-1.3-1.7-2.1-1.9-4c0,0.4-0.1,1.2,0,1.9C26.2,11.9,26,9.9,26,9c-0.2,0.4-0.4,1.2-0.4,1.9    c-0.9-2.4-0.2-5.6,1.1-6.8c-1.3,1.5-1,4.5,0.1,5.7c0-0.8,0.6-1.7,1.4-1.9c-1.5,1-0.9,3,0.8,3.2c0.3,0,0.6,0,0.9-0.1    c0.6-0.2,0.8-0.7,0.7-1.3c-0.1-0.7-0.8-0.5-0.6-0.1c-0.6,0-1-0.6-0.6-1.1c-0.1,0.4,0.2,0.4,0.4,0.4c0.2,0,0.5-0.2,0.7-0.1    C30.6,8.9,30.7,9,30.9,9c0.1,0,0.3-0.1,0.4-0.2c0.3-0.1,0.5,0,0.7,0.1c0.1,0,0.4,0,0.4-0.4c0.3,0.5,0,1.1-0.6,1.1    c0.2-0.4-0.6-0.5-0.6,0.1c-0.1,0.6,0.2,1.1,0.7,1.3c0.2,0.1,0.6,0.1,0.9,0.1c1.7-0.3,2.3-2.3,0.8-3.2c0.8,0.2,1.3,1,1.4,1.9    C36,8.6,36.3,5.6,35,4.1c1.3,1.2,2,4.4,1.1,6.8c0-0.6-0.1-1.5-0.4-1.9c0,0.9-0.2,2.8-1.1,4.1c0.1-0.7,0-1.4,0-1.9    c-0.2,1.9-1.6,2.7-1.9,4c0-0.3-0.5-0.8-0.7-1.1C31.9,15.1,31.2,15.7,30.9,16.4z M30.9,13.4c-1.1,0-2.3-0.5-2.4-1.8    c-0.3-0.1-0.7-0.2-0.8-0.4c0.1,2,1.8,3,3.2,3c1.5,0,3.1-1,3.2-3c-0.2,0.2-0.6,0.3-0.8,0.4C33.1,12.8,32,13.4,30.9,13.4z     M30.9,11.2c-0.1,0.2-0.3,0.3-0.5,0.3c-0.1,0.1-0.1,0.3-0.2,0.5c0,0.1-0.1,0.2-0.1,0c0-0.2-0.1-0.3-0.1-0.4c-0.2,0-0.4,0-0.6,0    c-0.2,0.3,0,0.6,0.2,0.8c0-0.2,0.1-0.3,0.2-0.5c0.1-0.2,0.1-0.1,0.1,0c0,0.3,0.1,0.4,0.2,0.6c0.3,0.1,0.6,0.2,0.9,0.2    c0.3,0,0.6-0.1,0.9-0.2c0.1-0.2,0.1-0.4,0.2-0.6c0-0.1,0-0.2,0.1,0c0.1,0.2,0.1,0.3,0.2,0.5c0.2-0.2,0.4-0.5,0.2-0.8    c-0.2,0-0.4,0-0.6,0c0,0.1-0.1,0.2-0.1,0.4c0,0.2-0.1,0.1-0.1,0c-0.1-0.2-0.1-0.3-0.2-0.5C31.2,11.5,31,11.4,30.9,11.2z M30.8,2.6    c-0.2-0.5-1.1-0.9-1.4-1c-0.3-0.9-1.4-1-2.1-0.9C28.6-0.1,30.8,0.8,30.8,2.6z M31,2.5C31.3,2.2,31.7,2,32,1.9    c0.3-1.1,1.7-1.5,2.4-1.2c-0.8-0.4-1.9-0.3-2.5,0.1C31.3,1.2,31,1.7,31,2.5z M29.8,29.5c-0.2-0.3-0.3-0.7-0.4-1.1    c-0.4,0.6-0.9,1.1-1.2,2.1c-0.3-1.2-0.8-1.8-1.3-2.6c-0.4-0.3-0.8-0.7-1.1-1l0.2,9.1c-0.6,0.1-3.3-0.1-3.2,2.5l0.7,0    c0-1.1,0.6-1.5,1.4-1.6c-0.7,0.2-0.8,0.9-0.8,1.6l0.8,0c0-1.1,0.6-1.5,1.4-1.5c-0.7,0.2-0.8,0.9-0.8,1.5l4.2,0V29.5z M24.6,3.2    c0.3-0.9,1-1.6,1.8-2c0.9-1.4,3.4-1.6,4.5-0.3c1.1-1.2,3.6-1.1,4.5,0.3c0.8,0.4,1.5,1.1,1.8,2c1.7-1.3,5.6-1.5,6.5,0.9    c1,0.1,2.3,0.8,2.7,1.7c0.2,0.4,0.3,0.9,0.2,1.3l1.2,1c0.1,0,0.1,0.1,0.2,0.1l0,0l0,0l0,0c0.9,0.6,0.4,1.7-0.4,1.7    c0.2,1-0.5,1.8-1.3,1.9c-0.1,0-0.2,0-0.4,0c-0.2,0.3-0.5,0.5-0.7,0.6c-0.1,0-0.2,0.1-0.1-0.1c0.1-0.2,0.2-0.4,0.3-0.6    c-0.5-0.1-1-0.4-1.3-0.7c-0.4,0.5-0.8,0.9,0.2,1.2l0.4,0.1c0.3,0.1,0.5,0.2,0.7,0.4c0.2-0.1,0.4-0.3,0.6-0.5    c0.1-0.1,0.1,0,0.1,0.1c0,0.2-0.1,0.6-0.3,0.8c0.1,0.3,0,0.7-0.4,1.3c-0.5,0.6-1.4,0.9-1.7,1.6c-0.3-1.5-1.9-2.1-2.8-2.7    c2.4,1.9,4.1,5.5,2.5,8.1l0,0c0.1,1.3-0.3,2.8-1.7,4.3l0-0.1c1.6-2.3,1.5-5.5-0.6-8c1.1,0.7,2.1,2,2.3,3.6h0    c1-6.7-5.8-7.5-4.1-12.8c-0.5,3.9,2.9,4.3,4.1,5.7c0.1,0.1,0.2,0.3,0.3,0.4c0.2,0.4,0.2,0.8,0.7,0.4c0.4-0.4,1-1.5,0.4-2    c-0.3-0.2-1-0.2-1.3-0.4c-1.7-0.7-0.9-2.8,0.5-2.6c-0.1-0.3,0-1,0.3-1.2c-0.4,1.8,1.8,2.8,2.7,2.1c-0.8,0.1-2.2-0.4-2.3-1.8    c0.2,0.7,0.9,1.2,1.6,1.4c0.3,0.1,1,0.1,1.1-0.3c-0.4,0.1-0.7,0.1-1,0c-0.5-0.2-0.8-0.6-1-0.9c0.3,0.3,0.7,0.6,1.2,0.7    c0.3,0.1,0.9,0.1,0.8-0.4c-0.4-0.2-0.7-0.4-1-0.9c1.2,1.2,1.4-0.1,1.9,0.1l-2.2-1.7C46.4,6.2,45,5,43.5,4.7    c-0.6-0.1-1.2,0.1-1.8,0.3c-0.5-0.3-0.9-0.5-1.7-0.4c0,0.2,0,0.7,0.5,1.1c-0.3,0.3-0.6,0.6-0.9,1c0-0.2,0.1-0.4,0.3-0.7    c-0.4-0.4-0.7-1.3-0.5-1.8C40,3.9,41.1,4,41.7,4.4c-0.4-0.8-2-1.1-3.1-0.5c1.1-0.9,2.7-0.8,3.8,0c-0.6-1.2-3.8-1.3-5.3,0.1l0,0    L37.1,4c-0.5-1.5-1.9-1.8-3.3-1.5c0.3,0,0.9,0.2,1.3,0.5c0.8-0.4,1.1-0.4,1.2,0c0,0.4-0.1,1.2-0.3,1.5c-0.3-0.8-1.4-1.9-2.8-2    c0.4-0.5,1.8-1,3.2-0.1c-1-1.3-3.1-1.5-4.2-0.6c-0.3,0.2-0.7,0.6-0.8,1h-0.7c-0.8-2-3.8-2-5.1-0.4c1.3-0.9,2.8-0.5,3.2,0.1    c-1.4,0.1-2.5,1.2-2.8,2c-0.2-0.3-0.4-1.2-0.3-1.5c0-0.4,0.4-0.4,1.2,0c0.4-0.4,0.9-0.5,1.3-0.5c-1.4-0.3-2.8,0-3.3,1.5L24.6,4    l0,0c-1.5-1.4-4.7-1.3-5.3-0.1c1.1-0.7,2.7-0.8,3.8,0c-1.1-0.6-2.7-0.3-3.1,0.5c0.7-0.4,1.8-0.5,2.3-0.1c0.1,0.6-0.1,1.4-0.5,1.8    C22,6.4,22,6.6,22.1,6.8c-0.2-0.4-0.5-0.7-0.9-1c0.5-0.5,0.5-0.9,0.5-1.1C21,4.5,20.5,4.7,20,5c-0.5-0.3-1.2-0.5-1.8-0.3    C16.7,5,15.3,6.2,16,7.3L13.7,9c0.6-0.1,0.7,1.2,1.9-0.1c-0.2,0.5-0.5,0.7-1,0.9c-0.1,0.5,0.5,0.5,0.8,0.4    c0.4-0.1,0.9-0.4,1.2-0.7c-0.2,0.3-0.5,0.7-1,0.9c-0.3,0.1-0.6,0.1-1,0c0.1,0.5,0.7,0.4,1.1,0.3c0.7-0.2,1.4-0.7,1.6-1.4    c-0.1,1.4-1.5,1.8-2.3,1.8c0.9,0.7,3.2-0.3,2.7-2.1c0.3,0.2,0.4,0.9,0.3,1.2c1.4-0.2,2.2,1.9,0.5,2.6c-0.4,0.1-1.1,0.2-1.3,0.4    c-0.6,0.4,0,1.5,0.4,2c0.5,0.5,0.4,0.1,0.7-0.4c0.1-0.1,0.2-0.3,0.3-0.4c1.2-1.4,4.6-1.7,4.1-5.7c1.7,5.3-5.1,6.1-4.1,12.8h0    c0.2-1.6,1.2-2.9,2.3-3.6c-2.1,2.6-2.2,5.7-0.6,8l0,0.1c-1.4-1.5-1.9-3-1.7-4.3l0,0c-1.6-2.6,0.2-6.3,2.5-8.1    c-1,0.6-2.5,1.2-2.8,2.7c-0.3-0.7-1.1-1.1-1.7-1.6c-0.5-0.5-0.6-0.9-0.4-1.3c-0.2-0.3-0.3-0.6-0.3-0.8c0-0.1,0-0.2,0.1-0.1    c0.1,0.2,0.4,0.4,0.6,0.5c0.2-0.1,0.4-0.3,0.7-0.4l0.4-0.1c0.9-0.3,0.6-0.7,0.2-1.2c-0.2,0.3-0.8,0.6-1.3,0.7    c0.1,0.2,0.2,0.4,0.3,0.6c0.1,0.2,0,0.1-0.1,0.1c-0.2,0-0.5-0.3-0.7-0.6c-0.1,0-0.3,0-0.4,0c-0.8-0.2-1.5-1-1.3-1.9    c-0.8-0.1-1.4-1.1-0.4-1.7l0,0l0,0l0,0c0,0,0.1-0.1,0.2-0.1l1.2-1c-0.1-0.4,0-0.9,0.2-1.3C15.7,4.9,17.1,4.1,18,4    C19,1.6,22.8,1.8,24.6,3.2z M17.1,48.9v-1.7h11.2c0.9,0,2.1,0.3,2.5,2c0.4-1.7,1.6-2,2.5-2h11.2v1.7H31.7v15.8c-0.3,0-0.5,0-0.8,0    c-0.3,0-0.5,0-0.8,0V48.9H17.1z"></path>
	</g>
</g>
<g>
	<g>
		<path class="st2" d="M86.4,32.2h-3.5v-6.1h-5.1v6.1h-3.5V17.1h3.5v5.9h5.1v-5.9h3.5V32.2z"></path>
		<path class="st2" d="M100.4,32.2H95c-1.1,0-2.1-0.1-2.7-0.3c-0.7-0.2-1.3-0.5-2-1.1c-0.8-0.6-1.3-1.5-1.7-2.4    c-0.4-1-0.6-2.2-0.6-3.5c0-2.7,0.6-4.6,1.7-5.9c1.1-1.3,2.9-1.9,5.3-1.9h5.3v3.1h-5.3c-1,0-1.8,0.2-2.3,0.7    c-0.5,0.5-0.8,1.2-0.9,2.1l8.4,0v3h-8.4c0,0.5,0.1,1,0.2,1.3c0.1,0.4,0.3,0.7,0.5,0.9c0.5,0.5,1.3,0.8,2.5,0.8h5.3V32.2z M99,16.3    h-2l-1.7-1.4l-1.6,1.4h-2l2.3-3.3h2.6L99,16.3z M96.4,36.4h-2.9v-3.1h2.9V36.4z"></path>
		<path class="st2" d="M119.1,20.2h-4.7v12h-3.6l0-12h-4.7v-3.1h13V20.2z"></path>
		<path class="st2" d="M132.2,32.2h-3.5v-6.1h-5.1v6.1h-3.5V17.1h3.5v5.9h5.1v-5.9h3.5V32.2z"></path>
		<path class="st2" d="M148.7,24.7c0,2.6-0.6,4.6-1.9,5.9c-1.2,1.3-3.1,2-5.6,2c-2.6,0-4.5-0.7-5.7-2c-1.2-1.3-1.8-3.3-1.8-6.1    c0-2.6,0.6-4.5,1.8-5.8c1.2-1.3,3.1-1.9,5.6-1.9c2.5,0,4.4,0.6,5.6,1.9C148.1,20.1,148.7,22,148.7,24.7z M144.8,16.3h-2l-1.7-1.4    l-1.6,1.4h-2l2.3-3.3h2.6L144.8,16.3z M144.9,24.7c0-1.7-0.3-2.9-0.9-3.7c-0.6-0.8-1.5-1.2-2.8-1.2c-1.2,0-2.1,0.4-2.7,1.1    c-0.3,0.4-0.5,0.9-0.7,1.5c-0.2,0.6-0.2,1.3-0.2,2.1c0,1.7,0.3,3,0.9,3.8c0.6,0.8,1.5,1.2,2.8,1.2c1.2,0,2.1-0.4,2.7-1.2    C144.6,27.5,144.9,26.3,144.9,24.7z M146,10.4h3.8l-4.1,3.3h-2L146,10.4z"></path>
		<path class="st2" d="M163.5,32.2h-3.9l-5.8-10.3l0.1,10.3h-3.6V17.1h4.2l5.5,9.7l-0.1-9.7h3.6V32.2z"></path>
		<path class="st2" d="M178.8,32.2H172c-0.6,0-1.1,0-1.6-0.1c-0.5-0.1-0.9-0.1-1.2-0.2c-0.7-0.2-1.3-0.6-1.9-1    c-0.8-0.6-1.3-1.5-1.7-2.4c-0.4-1-0.6-2.2-0.6-3.5c0-2.7,0.6-4.6,1.7-5.9c1.1-1.3,2.9-1.9,5.3-1.9h6.8v3H172    c-1.1,0-1.9,0.4-2.4,1.1c-0.5,0.7-0.8,1.9-0.8,3.6c0,1.5,0.2,2.6,0.7,3.3c0.5,0.7,1.3,1,2.4,1h3.2v-2.9h-4.1v-3.1h7.7V32.2z"></path>
		<path class="st2" d="M197.4,20.2h-4.7v12h-3.6l0-12h-4.7v-3.1h13V20.2z"></path>
		<path class="st2" d="M212.3,32.2h-4l-3.2-5.7h-3.2v5.7h-3.5V17.1h7.7c1.8,0,3.2,0.4,4,1.1c0.9,0.7,1.3,1.9,1.3,3.5    c0,1.2-0.3,2.1-0.8,2.9c-0.5,0.7-1.1,1.1-2,1.4L212.3,32.2z M207.8,21.8c0-0.6-0.2-1-0.5-1.2c-0.4-0.2-1-0.3-2-0.3h-3.5v3.1h3.5    c0.9,0,1.6-0.1,2-0.4C207.6,22.8,207.8,22.4,207.8,21.8z"></path>
		<path class="st2" d="M228.1,14.4v1.2c0,0.6-0.1,1.1-0.4,1.6c-0.2,0.4-0.6,0.9-1.3,1.5v7.5c0,0.5,0,1-0.1,1.4    c0,0.4-0.1,0.8-0.2,1.1c-0.1,0.7-0.4,1.2-0.7,1.6c-0.6,0.7-1.3,1.2-2.3,1.6c-0.9,0.3-2,0.5-3.4,0.5c-1.3,0-2.4-0.2-3.3-0.5    c-0.9-0.3-1.7-0.9-2.3-1.6c-0.3-0.4-0.5-0.9-0.6-1.5c-0.1-0.6-0.2-1.5-0.2-2.5v-9.1h3.5v9c0,1.3,0.2,2.2,0.6,2.7    c0.5,0.5,1.2,0.7,2.3,0.7c1.1,0,1.9-0.2,2.3-0.7c0.4-0.5,0.7-1.4,0.7-2.7v-9h3.4v-0.6h-1.1v-2.1H228.1z"></path>
		<path class="st2" d="M242.4,14.4v1.2c0,0.6-0.1,1.1-0.4,1.6c-0.1,0.4-0.6,0.9-1.2,1.4c0.1,0.1,0.1,0.1,0.2,0.2    c1.2,1.3,1.8,3.3,1.8,5.9c0,2.6-0.6,4.6-1.9,5.9c-1.2,1.3-3.1,2-5.6,2c-2.6,0-4.5-0.7-5.7-2c-1.2-1.3-1.8-3.3-1.8-6.1    c0-2.6,0.6-4.5,1.8-5.8c1.2-1.3,3.1-1.9,5.6-1.9c1.8,0,3.3,0.3,4.4,1l0.8-0.8v-0.5h-1.1v-2.1H242.4z M237.5,16.3h-2l-4.1-3.3h3.8    L237.5,16.3z M239.1,24.7c0-1.7-0.3-2.9-0.9-3.7c-0.6-0.8-1.5-1.2-2.8-1.2c-1.2,0-2.1,0.4-2.7,1.1c-0.3,0.4-0.5,0.9-0.7,1.5    c-0.2,0.6-0.2,1.3-0.2,2.1c0,1.7,0.3,3,0.9,3.8c0.6,0.8,1.5,1.2,2.8,1.2c1.2,0,2.1-0.4,2.7-1.2C238.8,27.5,239.1,26.3,239.1,24.7z    "></path>
		<path class="st2" d="M257.6,32.2h-3.9l-5.8-10.3l0.1,10.3h-3.6V17.1h4.2l5.5,9.7l-0.1-9.7h3.6V32.2z"></path>
		<path class="st2" d="M273,32.2h-6.8c-0.6,0-1.1,0-1.6-0.1c-0.5-0.1-0.9-0.1-1.2-0.2c-0.7-0.2-1.3-0.6-1.9-1    c-0.8-0.6-1.3-1.5-1.7-2.4c-0.4-1-0.6-2.2-0.6-3.5c0-2.7,0.6-4.6,1.7-5.9c1.1-1.3,2.9-1.9,5.3-1.9h6.8v3h-6.8    c-1.1,0-1.9,0.4-2.4,1.1c-0.5,0.7-0.8,1.9-0.8,3.6c0,1.5,0.2,2.6,0.7,3.3c0.5,0.7,1.3,1,2.4,1h3.2v-2.9h-4.1v-3.1h7.7V32.2z"></path>
	</g>
	<g>
		<path class="st2" d="M87.5,48.6c0,0.9-0.1,1.7-0.4,2.3c-0.3,0.7-0.8,1.2-1.3,1.6c-0.5,0.4-1.1,0.6-1.7,0.8    c-0.4,0.1-0.8,0.1-1.2,0.2c-0.5,0-1,0.1-1.6,0.1h-3.4v5.1h-3.5v-15h6.8c1.1,0,2,0.1,2.7,0.2c0.4,0.1,0.7,0.2,1,0.2    c0.3,0.1,0.5,0.2,0.7,0.4c0.7,0.5,1.2,1,1.6,1.8C87.4,46.9,87.5,47.7,87.5,48.6z M83.7,48.6c0-0.7-0.2-1.1-0.6-1.4    c-0.4-0.3-1.1-0.4-2.1-0.4h-3.2v3.7h3.4c0.4,0,0.8,0,1.1-0.1c0.3-0.1,0.6-0.2,0.8-0.4C83.5,49.7,83.7,49.2,83.7,48.6z"></path>
		<path class="st2" d="M103.2,58.6h-3.9l-1.3-3.4h-5.9l-1.3,3.4H87l6.3-15h3.6L103.2,58.6z M96.7,52.1L95,47.5l-1.7,4.6H96.7z"></path>
		<path class="st2" d="M115,46.7h-4.7v11.9h-3.6l0-11.9H102v-3.1H115V46.7z"></path>
		<path class="st2" d="M128,58.6h-3.5v-6.1h-5v6.1h-3.5v-15h3.5v5.9h5v-5.9h3.5V58.6z"></path>
		<path class="st2" d="M151.7,43.6l-4.6,15h-4l-2.9-10.1l-2.5,10.1h-4l-4.9-15h3.8l3.1,10.4l2.6-10.4h3.9l3,10.4l2.9-10.4H151.7z"></path>
		<path class="st2" d="M166.6,58.6h-3.9l-1.3-3.4h-5.9l-1.3,3.4h-3.8l6.3-15h3.6L166.6,58.6z M160.1,52.1l-1.8-4.6l-1.7,4.6H160.1z"></path>
		<path class="st2" d="M179.4,43.6l-5.7,8.4v6.6h-3.5V52l-5.7-8.4h4l3.4,5.3l3.4-5.3H179.4z"></path>
		<path class="st2" d="M195.8,46.7h-4.7v11.9h-3.6l0-11.9h-4.6v-3.1h12.9V46.7z"></path>
		<path class="st2" d="M209.7,52.6c0,0.5,0,1-0.1,1.4c0,0.4-0.1,0.8-0.2,1.1c-0.1,0.7-0.4,1.2-0.7,1.6c-0.6,0.7-1.3,1.2-2.2,1.6    c-0.9,0.3-2,0.5-3.3,0.5c-1.3,0-2.4-0.2-3.3-0.5c-0.9-0.3-1.7-0.9-2.3-1.6c-0.3-0.4-0.5-0.9-0.6-1.5c-0.1-0.6-0.2-1.4-0.2-2.5v-9    h3.5v8.9c0,1.3,0.2,2.1,0.6,2.7c0.4,0.5,1.2,0.7,2.3,0.7c1.1,0,1.9-0.2,2.3-0.7c0.4-0.5,0.7-1.4,0.7-2.7v-8.9h3.5V52.6z"></path>
		<path class="st2" d="M223.5,58.6h-5.4c-1.1,0-2-0.1-2.7-0.3c-0.7-0.2-1.3-0.5-1.9-1c-0.8-0.6-1.3-1.4-1.7-2.4    c-0.4-1-0.6-2.1-0.6-3.5c0-2.6,0.6-4.6,1.7-5.9c1.1-1.3,2.9-1.9,5.3-1.9h5.3v3h-5.2c-1,0-1.7,0.2-2.2,0.7    c-0.5,0.5-0.8,1.2-0.9,2.1l8.4,0v3h-8.4c0,0.5,0.1,0.9,0.2,1.3c0.1,0.4,0.3,0.7,0.5,0.9c0.5,0.5,1.3,0.8,2.4,0.8h5.2V58.6z     M222.1,42.8h-1.9l-1.6-1.4l-1.6,1.4h-1.9l2.3-3.3h2.6L222.1,42.8z M219.5,62.7h-2.9v-3.1h2.9V62.7z"></path>
		<path class="st2" d="M244.7,51.4c0,0.7,0,1.3-0.1,1.9c-0.1,0.6-0.2,1.1-0.4,1.6c-0.4,1-0.9,1.8-1.7,2.4c-0.6,0.5-1.2,0.8-1.9,1    c-0.3,0.1-0.7,0.2-1.2,0.2c-0.4,0.1-1,0.1-1.6,0.1h-6.9V52h-1.5V50h1.5v-6.4h6.8c2.4,0,4.2,0.6,5.3,1.9    C244.2,46.8,244.7,48.7,244.7,51.4z M241,51.1c0-1.7-0.2-2.9-0.7-3.5c-0.5-0.6-1.3-0.9-2.6-0.9h-3.3V50h3.4V52h-3.4v3.5h3.3    c1.2,0,2.1-0.3,2.6-0.9C240.7,54,241,52.9,241,51.1z"></path>
		<path class="st2" d="M260.8,41v1.1c0,0.6-0.1,1.1-0.4,1.5c-0.2,0.4-0.6,0.9-1.3,1.5v7.5c0,0.5,0,1-0.1,1.4c0,0.4-0.1,0.8-0.2,1.1    c-0.1,0.7-0.4,1.2-0.7,1.6c-0.6,0.7-1.3,1.2-2.2,1.6c-0.9,0.3-2,0.5-3.3,0.5c-1.3,0-2.4-0.2-3.3-0.5c-0.9-0.3-1.7-0.9-2.3-1.6    c-0.3-0.4-0.5-0.9-0.6-1.5c-0.1-0.6-0.2-1.4-0.2-2.5v-9h3.5v8.9c0,1.3,0.2,2.1,0.6,2.7c0.4,0.5,1.2,0.7,2.3,0.7    c1.1,0,1.9-0.2,2.3-0.7c0.4-0.5,0.7-1.4,0.7-2.7v-8.9h3.4v-0.6H258V41H260.8z M256.6,39.5l-4,3.3h-2l2.3-3.3H256.6z"></path>
		<path class="st2" d="M273,58.6h-5.4c-1.1,0-2-0.1-2.7-0.3c-0.7-0.2-1.3-0.5-1.9-1c-0.8-0.6-1.3-1.4-1.7-2.4    c-0.4-1-0.6-2.1-0.6-3.5c0-2.6,0.6-4.6,1.7-5.9c1.1-1.3,2.9-1.9,5.3-1.9h5.3v3h-5.2c-0.6,0-1.1,0.1-1.5,0.2    c-0.4,0.2-0.7,0.5-1,0.8c-0.5,0.7-0.8,2-0.8,3.8c0,1.5,0.2,2.6,0.7,3.2c0.5,0.6,1.3,0.9,2.5,0.9h5.2V58.6z"></path>
	</g>
</g>
</svg>
